<?xml version="1.0" encoding="iso-8859-1"?>
<!-- Generator: Adobe Illustrator 19.0.0, SVG Export Plug-In . SVG Version: 6.00 Build 0)  -->
<svg version="1.1" id="Capa_1" xmlns="http://www.w3.org/2000/svg" xmlns:xlink="http://www.w3.org/1999/xlink" x="0px" y="0px"
	 viewBox="0 0 512 512" style="enable-background:new 0 0 512 512;" xml:space="preserve">
<path style="fill:#303C42;" d="M256,0C114.833,0,0,114.844,0,256s114.833,256,256,256c141.167,0,256-114.844,256-256
	S397.167,0,256,0z"/>
<path style="fill:#E4E5E6;" d="M256,490.667C126.605,490.667,21.333,385.395,21.333,256S126.605,21.333,256,21.333
	c129.395,0,234.667,105.271,234.667,234.667S385.395,490.667,256,490.667z"/>
<path style="opacity:0.1;enable-background:new    ;" d="M256,21.333C126.396,21.333,21.333,126.397,21.333,256
	S126.396,490.667,256,490.667c129.603,0,234.667-105.063,234.667-234.667S385.603,21.333,256,21.333z M234.667,426.667
	c-106.04,0-192-85.963-192-192c0-106.039,85.96-192,192-192c106.039,0,192,85.961,192,192
	C426.667,340.704,340.706,426.667,234.667,426.667z"/>
<circle style="opacity:0.5;fill:#FFFFFF;enable-background:new    ;" cx="224" cy="213.333" r="138.667"/>
<path style="fill:#303C42;" d="M168.166,299.646c3.251,0,6.543-0.239,9.835-0.759c20.311-3.179,48.395-18.146,66.75-71.407
	c1.873-5.417-0.877-11.345-6.21-13.417c-18.562-7.23-33.5-27.354-47.957-46.814c-21.813-29.406-46.645-62.613-87.23-49.385
	c-17.749,5.803-30.771,19.324-36.708,38.052c-9.167,29.02-1.001,66.615,20.813,95.802
	C104.687,274.771,135.27,299.646,168.166,299.646z"/>
<path style="fill:#5C6671;" d="M86.999,162.355c3.895-12.354,11.646-20.501,22.98-24.22c3.917-1.282,7.603-1.897,11.125-1.897
	c18.769,0,32.832,17.438,52.354,43.729c14.042,18.908,28.499,38.366,47.812,49.417c-11.605,28.783-27.605,45.459-46.583,48.429
	c-27.104,4.354-54.771-18.283-70.146-38.865C86.978,215.458,79.938,184.676,86.999,162.355z"/>
<g>
	<path style="fill:#303C42;" d="M454.521,298.157l-0.245-0.066c1.348-6.415,2.426-12.939,3.162-19.58
		c0.646-5.854-3.584-11.136-9.438-11.782c-5.875-0.614-11.126,3.573-11.772,9.427c-0.617,5.577-1.504,11.063-2.605,16.465
		c-5.521-1.303-11.273,1.971-12.789,7.556c-1.489,5.577,1.749,11.234,7.236,12.902c-2.765,8.384-6.091,16.482-9.979,24.252
		c-5.043-2.714-11.392-1.011-14.279,4.002c-2.914,5.028-1.222,11.396,3.706,14.404c-4.83,7.334-10.221,14.234-16.026,20.755
		c-4.181-3.923-10.72-3.9-14.805,0.183c-4.111,4.113-4.126,10.72-0.124,14.897c-6.541,5.813-13.581,11.038-20.911,15.857
		c-3.025-4.879-9.346-6.513-14.319-3.629c-5.029,2.906-6.754,9.267-3.977,14.336c-7.78,3.9-15.938,7.106-24.299,9.871
		c-1.713-5.434-7.268-8.606-12.892-7.155c-5.562,1.487-8.841,7.121-7.565,12.685c-8.482,1.734-17.184,2.79-26.033,3.302
		c-0.273-5.653-4.847-10.174-10.568-10.174c-5.722,0-10.296,4.521-10.569,10.174c-8.849-0.512-17.551-1.568-26.033-3.302
		c1.276-5.564-2.003-11.198-7.565-12.685c-5.583-1.429-11.177,1.724-12.89,7.155c-8.361-2.765-16.521-5.971-24.301-9.871
		c2.778-5.069,1.052-11.43-3.976-14.336c-4.994-2.852-11.313-1.229-14.319,3.629c-7.33-4.819-14.37-10.044-20.911-15.857
		c4.002-4.177,3.987-10.784-0.124-14.897c-4.085-4.083-10.624-4.107-14.805-0.183c-5.805-6.522-11.195-13.421-16.026-20.755
		c4.928-3.008,6.62-9.376,3.706-14.404c-2.886-5.024-9.233-6.743-14.276-4.002c-3.891-7.767-7.217-15.87-9.982-24.252
		c5.487-1.668,8.725-7.326,7.236-12.902c-1.517-5.566-7.115-8.911-12.789-7.558c-1.101-5.399-1.988-10.886-2.605-16.463
		c-0.646-5.865-6.022-10.02-11.771-9.427c-5.854,0.646-10.085,5.929-9.438,11.782c0.736,6.641,1.813,13.165,3.162,19.58
		l-0.245,0.066c-5.707,1.521-9.082,7.364-7.563,13.062c1.293,4.759,5.604,7.906,10.313,7.906c0.896,0,1.835-0.115,2.75-0.365
		l0.311-0.083c3.283,10.155,7.305,19.947,12.058,29.299l-0.201,0.117c-5.105,2.948-6.854,9.468-3.898,14.573
		c1.958,3.418,5.564,5.333,9.231,5.333c1.811,0,3.646-0.459,5.333-1.427l0.149-0.087c5.786,8.902,12.316,17.242,19.377,25.082
		l-0.194,0.194c-4.166,4.166-4.166,10.916,0,15.083c2.084,2.084,4.813,3.125,7.541,3.125c2.731,0,5.459-1.041,7.541-3.125
		l0.124-0.122c7.859,7.068,16.354,13.41,25.244,19.181l-0.158,0.275c-2.959,5.103-1.21,11.625,3.896,14.573
		c1.687,0.969,3.52,1.427,5.333,1.427c3.667,0,7.27-1.907,9.229-5.333l0.124-0.215c9.37,4.764,19.192,8.704,29.312,11.983
		l-0.102,0.388c-1.521,5.687,1.854,11.541,7.541,13.062c0.939,0.25,1.854,0.365,2.771,0.365c4.708,0,9.022-3.136,10.312-7.906
		l0.098-0.367c10.21,2.15,20.693,3.458,31.381,4.015v0.497c0,5.897,4.77,10.667,10.667,10.667c5.896,0,10.667-4.77,10.667-10.667
		v-0.497c10.688-0.557,21.171-1.865,31.381-4.015l0.098,0.367c1.291,4.77,5.604,7.906,10.313,7.906c0.917,0,1.832-0.115,2.771-0.365
		c5.687-1.521,9.062-7.375,7.541-13.062l-0.102-0.388c10.121-3.279,19.942-7.219,29.312-11.983l0.124,0.215
		c1.958,3.426,5.562,5.333,9.229,5.333c1.813,0,3.646-0.459,5.333-1.427c5.105-2.948,6.854-9.47,3.895-14.573l-0.158-0.275
		c8.89-5.771,17.385-12.113,25.244-19.181l0.124,0.122c2.082,2.084,4.811,3.125,7.541,3.125c2.729,0,5.457-1.041,7.541-3.125
		c4.166-4.166,4.166-10.916,0-15.083l-0.194-0.194c7.061-7.84,13.591-16.179,19.377-25.082l0.149,0.087
		c1.687,0.969,3.522,1.427,5.333,1.427c3.667,0,7.273-1.916,9.231-5.333c2.957-5.105,1.207-11.625-3.898-14.573l-0.201-0.117
		c4.753-9.353,8.774-19.145,12.058-29.299l0.311,0.083c0.915,0.25,1.833,0.365,2.75,0.365c4.708,0,9.02-3.147,10.313-7.906
		C463.603,305.521,460.228,299.678,454.521,298.157z"/>
	<path style="fill:#303C42;" d="M238.479,278.49c-0.875,0.343-8.77,3.584-14.667,11.437c-5.687,7.552-7.209,16.324-7.375,17.303
		c-0.563,3.614,0.751,7.281,3.501,9.698c1.978,1.728,4.478,2.645,7.04,2.645c1.022,0,2.044-0.147,3.042-0.448
		c1.001-0.292,9.98-3.157,16.167-11.386c6.001-7.989,6.75-17.604,6.814-18.667c0.228-3.635-1.416-7.125-4.375-9.271
		C245.709,277.666,241.854,277.156,238.479,278.49z"/>
	<path style="fill:#303C42;" d="M333.915,298.895c3.292,0.512,6.583,0.751,9.835,0.751c32.896,0,63.479-24.885,80.687-47.927
		c21.521-28.759,29.897-67.27,20.875-95.844c-5.916-18.707-18.938-32.207-36.666-38.01c-40.603-13.312-65.438,19.989-87.313,49.395
		c-14.458,19.458-29.417,39.573-47.979,46.803c-5.333,2.071-8.083,8-6.208,13.417C285.5,280.751,313.583,295.718,333.915,298.895z"
		/>
</g>
<path style="fill:#5C6671;" d="M338.457,179.989c23.23-31.249,38.731-50.01,63.563-41.854c11.335,3.708,19.042,11.844,22.938,24.166
	c7.064,22.323-0.021,53.124-17.604,76.646c-15.375,20.572-43.104,43.093-70.146,38.865c-18.978-2.97-34.978-19.646-46.583-48.429
	C309.937,218.345,324.397,198.886,338.457,179.989z"/>
<path style="fill:#303C42;" d="M265.709,307.74c6.187,8.228,15.166,11.093,16.166,11.386c1.001,0.301,2.02,0.448,3.042,0.448
	c2.562,0,5.062-0.917,7.04-2.645c2.752-2.417,4.064-6.084,3.501-9.698c-0.166-0.979-1.687-9.751-7.354-17.282
	c-5.875-7.874-13.792-11.115-14.667-11.458c-3.396-1.333-7.251-0.823-10.146,1.312c-2.959,2.146-4.603,5.636-4.375,9.271
	c0.062,1.062,0.791,10.667,6.771,18.645C265.687,307.729,265.687,307.729,265.709,307.74z"/>
<linearGradient id="SVGID_1_" gradientUnits="userSpaceOnUse" x1="-45.5785" y1="639.5551" x2="-23.8277" y2="629.4137" gradientTransform="matrix(21.3333 0 0 -21.3333 996.3334 13791.667)">
	<stop  offset="0" style="stop-color:#FFFFFF;stop-opacity:0.2"/>
	<stop  offset="1" style="stop-color:#FFFFFF;stop-opacity:0"/>
</linearGradient>
<path style="fill:url(#SVGID_1_);" d="M256,0C114.833,0,0,114.844,0,256s114.833,256,256,256c141.167,0,256-114.844,256-256
	S397.167,0,256,0z"/>
<g>
</g>
<g>
</g>
<g>
</g>
<g>
</g>
<g>
</g>
<g>
</g>
<g>
</g>
<g>
</g>
<g>
</g>
<g>
</g>
<g>
</g>
<g>
</g>
<g>
</g>
<g>
</g>
<g>
</g>
</svg>
