<svg version="1.1"  xmlns="http://www.w3.org/2000/svg" xmlns:xlink="http://www.w3.org/1999/xlink"  viewBox="0 0 16 16">
<path class="st0" d="M15,0c0.3,0,0.5,0.1,0.7,0.3S16,0.7,16,1c0,0.3-0.1,0.5-0.3,0.7L9.4,8l6.3,6.3c0.2,0.2,0.3,0.4,0.3,0.7
	c0,0.3-0.1,0.5-0.3,0.7S15.3,16,15,16c-0.3,0-0.5-0.1-0.7-0.3L8,9.4l-6.3,6.3C1.5,15.9,1.3,16,1,16c-0.3,0-0.5-0.1-0.7-0.3
	S0,15.3,0,15c0-0.3,0.1-0.5,0.3-0.7L6.6,8L0.3,1.7C0.1,1.5,0,1.3,0,1c0-0.3,0.1-0.5,0.3-0.7S0.7,0,1,0c0.3,0,0.5,0.1,0.7,0.3L8,6.6
	l6.3-6.3C14.5,0.1,14.7,0,15,0z"/>
</svg>
