<?xml version="1.0" encoding="utf-8"?><!DOCTYPE svg PUBLIC "-//W3C//DTD SVG 1.1//EN" "http://www.w3.org/Graphics/SVG/1.1/DTD/svg11.dtd"><svg xmlns="http://www.w3.org/2000/svg" xmlns:xlink="http://www.w3.org/1999/xlink"><symbol viewBox="0 0 19 32" id="phone"><g fill="#828282"><path d="M1.5 32h16c.827 0 1.5-.673 1.5-1.5v-29c0-.827-.673-1.5-1.5-1.5h-16C.673 0 0 .673 0 1.5v29c0 .827.673 1.5 1.5 1.5zM1 1.5a.5.5 0 0 1 .5-.5h16a.5.5 0 0 1 .5.5v29a.5.5 0 0 1-.5.5h-16a.5.5 0 0 1-.5-.5v-29z"/><path d="M2.5 27h14a.5.5 0 0 0 .5-.5v-21a.5.5 0 0 0-.5-.5h-14a.5.5 0 0 0-.5.5v21a.5.5 0 0 0 .5.5zM3 6h13v20H3V6z"/><circle cx="10" cy="29" r="1"/><path d="M7.5 4h4a.5.5 0 0 0 0-1h-4a.5.5 0 0 0 0 1z"/></g></symbol><symbol viewBox="0 0 32 32" id="sad"><g fill="#828282"><path d="M16-.034C7.16-.034-.035 7.158-.035 16S7.16 32.034 16 32.034 32.035 24.842 32.035 16 24.84-.034 16-.034zm0 31C7.748 30.966 1.035 24.252 1.035 16S7.748 1.034 16 1.034 30.965 7.748 30.965 16 24.252 30.966 16 30.966z"/><path d="M16.163 19.823c-2.79 0-5.477 1.18-7.374 3.235a.533.533 0 1 0 .786.725 8.988 8.988 0 0 1 6.586-2.892 8.98 8.98 0 0 1 6.656 2.968.535.535 0 1 0 .794-.717 10.052 10.052 0 0 0-7.45-3.317zM10.5 16.5c1.103 0 2-.897 2-2s-.897-2-2-2-2 .897-2 2 .897 2 2 2zm0-3a1 1 0 0 1 0 2 1 1 0 0 1 0-2zM21.5 16.5c1.103 0 2-.897 2-2s-.897-2-2-2-2 .897-2 2 .897 2 2 2zm0-3a1 1 0 0 1 0 2 1 1 0 0 1 0-2z"/></g></symbol><symbol viewBox="0 0 32 32" id="scope"><g fill="#828282"><path d="M17 6.5a.5.5 0 0 0-1 0V15H6.5a.5.5 0 0 0 0 1H16v9.47a.5.5 0 0 0 1 0V16h9.47a.5.5 0 0 0 0-1H17V6.5z"/><path d="M31.562 15H28.95C28.46 8.63 23.37 3.54 17 3.05V.5a.5.5 0 0 0-1 0V3C9.17 3 3.565 8.3 3.05 15H.563a.5.5 0 0 0 0 1H3c0 7.168 5.832 13 13 13v2.5a.5.5 0 0 0 1 0v-2.55c6.7-.515 12-6.12 12-12.95h2.562a.5.5 0 0 0 0-1zM16 28C9.383 28 4 22.617 4 16S9.383 4 16 4s12 5.383 12 12-5.383 12-12 12z"/></g></symbol><symbol viewBox="0 0 33 32" id="search"><g fill="#828282"><path d="M1.5 32h21c.827 0 1.5-.673 1.5-1.5V23c0-.01-.005-.018-.006-.028.055-.035.112-.068.166-.105l7.986 7.986a.5.5 0 0 0 .708-.706l-7.913-7.913A6.48 6.48 0 0 0 27 17.5c0-2.297-1.2-4.316-3.006-5.472 0-.01.006-.018.006-.028V9.5c0-.017-.008-.03-.01-.047 0-.023-.007-.043-.012-.065a.488.488 0 0 0-.09-.19c-.007-.01-.006-.02-.013-.03l-8-9c-.003-.003-.007-.003-.01-.006a.49.49 0 0 0-.223-.134c-.02-.006-.036-.008-.056-.01C15.556.01 15.53 0 15.5 0h-14C.673 0 0 .673 0 1.5v29c0 .827.673 1.5 1.5 1.5zM26 17.5c0 3.033-2.468 5.5-5.5 5.5S15 20.533 15 17.5s2.468-5.5 5.5-5.5 5.5 2.467 5.5 5.5zM16 1.815L22.387 9H16.5c-.22 0-.5-.42-.5-.75V1.815zM1 1.5a.5.5 0 0 1 .5-.5H15v7.25c0 .81.655 1.75 1.5 1.75H23v1.5a6.475 6.475 0 0 0-7.18 1.5H5.5a.5.5 0 0 0 0 1h9.532c-.565.88-.922 1.9-1.006 3H5.5a.5.5 0 0 0 0 1h8.525c.084 1.1.442 2.12 1.006 3H5.5a.5.5 0 0 0 0 1h10.25c.02 0 .04-.01.06-.012a6.476 6.476 0 0 0 7.19 1.51V30.5a.5.5 0 0 1-.5.5h-21c-.28 0-.5-.22-.5-.5v-29z"/><path d="M5.5 10h6a.5.5 0 0 0 0-1h-6a.5.5 0 0 0 0 1zM5.5 26h13a.5.5 0 0 0 0-1h-13a.5.5 0 0 0 0 1z"/></g></symbol><symbol viewBox="0 0 27 32" id="shield"><path fill="#828282" d="M13.5 0C4.563 0 .292 5.047.114 5.262a.506.506 0 0 0-.114.32v10.053c0 8.504 7.826 13.553 11.19 15.33a.5.5 0 0 0 .467-.886C7.677 27.977 1 23.307 1 15.633V5.77c.702-.754 4.632-4.596 12-4.764V31.5a.5.5 0 0 0 .875.33C15.512 31.128 27 25.817 27 15.5v-10a.5.5 0 0 0-.115-.32C26.737 5.003 23.17.807 15.745.058a.506.506 0 0 0-.55.447.5.5 0 0 0 .448.548c6.287.634 9.703 3.945 10.357 4.64V15.5c0 8.952-9.363 13.95-12 15.18V.5a.5.5 0 0 0-.5-.5z"/></symbol></svg>