<?xml version="1.0" encoding="utf-8"?><!DOCTYPE svg PUBLIC "-//W3C//DTD SVG 1.1//EN" "http://www.w3.org/Graphics/SVG/1.1/DTD/svg11.dtd"><svg width="0" height="0" display="none" xmlns="http://www.w3.org/2000/svg" xmlns:xlink="http://www.w3.org/1999/xlink"><symbol viewBox="0 0 19 32" id="phone"><g fill="#828282"><path d="M1.5 32h16c.827 0 1.5-.673 1.5-1.5v-29c0-.827-.673-1.5-1.5-1.5h-16C.673 0 0 .673 0 1.5v29c0 .827.673 1.5 1.5 1.5zM1 1.5a.5.5 0 0 1 .5-.5h16a.5.5 0 0 1 .5.5v29a.5.5 0 0 1-.5.5h-16a.5.5 0 0 1-.5-.5v-29z"/><path d="M2.5 27h14a.5.5 0 0 0 .5-.5v-21a.5.5 0 0 0-.5-.5h-14a.5.5 0 0 0-.5.5v21a.5.5 0 0 0 .5.5zM3 6h13v20H3V6z"/><circle cx="10" cy="29" r="1"/><path d="M7.5 4h4a.5.5 0 0 0 0-1h-4a.5.5 0 0 0 0 1z"/></g></symbol><symbol viewBox="0 0 32 32" id="sad"><g fill="#828282"><path d="M16-.034C7.159-.034-.035 7.158-.035 16S7.159 32.034 16 32.034 32.035 24.842 32.035 16 24.841-.034 16-.034zm0 31C7.748 30.966 1.035 24.252 1.035 16S7.748 1.034 16 1.034 30.965 7.748 30.965 16 24.252 30.966 16 30.966z"/><path d="M16.163 19.823a10.064 10.064 0 0 0-7.374 3.235.533.533 0 1 0 .786.725 8.988 8.988 0 0 1 6.587-2.892 8.979 8.979 0 0 1 6.656 2.967.535.535 0 0 0 .794-.717 10.052 10.052 0 0 0-7.449-3.318zM10.5 16.5c1.103 0 2-.897 2-2s-.897-2-2-2-2 .897-2 2 .897 2 2 2zm0-3a1.001 1.001 0 1 1-1 1c0-.552.449-1 1-1zM21.5 16.5c1.103 0 2-.897 2-2s-.897-2-2-2-2 .897-2 2 .897 2 2 2zm0-3a1.001 1.001 0 1 1-1 1c0-.552.449-1 1-1z"/></g></symbol><symbol viewBox="0 0 32 32" id="scope"><g fill="#828282"><path d="M17 6.5a.5.5 0 0 0-1 0V15H6.5a.5.5 0 0 0 0 1H16v9.469a.5.5 0 0 0 1 0V16h9.469a.5.5 0 0 0 0-1H17V6.5z"/><path d="M31.562 15h-2.613C28.461 8.63 23.37 3.539 17 3.051V.5a.5.5 0 0 0-1 0V3C9.17 3 3.565 8.299 3.051 15H.562a.5.5 0 0 0 0 1H3c0 7.168 5.832 13 13 13v2.5a.5.5 0 0 0 1 0v-2.551C23.701 28.435 29 22.83 29 16h2.562a.5.5 0 0 0 0-1zM16 28C9.383 28 4 22.617 4 16S9.383 4 16 4s12 5.383 12 12-5.383 12-12 12z"/></g></symbol><symbol viewBox="0 0 33 32" id="search"><g fill="#828282"><path d="M1.5 32h21c.827 0 1.5-.673 1.5-1.5V23c0-.01-.005-.018-.006-.028.055-.035.112-.068.166-.105l7.986 7.986a.5.5 0 1 0 .708-.706l-7.913-7.913A6.479 6.479 0 0 0 27 17.5a6.494 6.494 0 0 0-3.006-5.472c.001-.01.006-.018.006-.028V9.5c0-.017-.008-.031-.009-.047-.002-.023-.008-.043-.013-.065a.488.488 0 0 0-.09-.191c-.007-.009-.006-.02-.013-.029l-8-9c-.003-.003-.007-.003-.01-.006a.49.49 0 0 0-.223-.134c-.019-.006-.036-.008-.056-.011C15.557.012 15.53 0 15.5 0h-14C.673 0 0 .673 0 1.5v29c0 .827.673 1.5 1.5 1.5zM26 17.5c0 3.033-2.468 5.5-5.5 5.5S15 20.533 15 17.5s2.468-5.5 5.5-5.5 5.5 2.467 5.5 5.5zM16 1.815L22.387 9H16.5c-.22 0-.5-.42-.5-.75V1.815zM1 1.5a.5.5 0 0 1 .5-.5H15v7.25c0 .809.655 1.75 1.5 1.75H23v1.501A6.475 6.475 0 0 0 15.821 13H5.5a.5.5 0 0 0 0 1h9.532a6.442 6.442 0 0 0-1.006 3H5.5a.5.5 0 0 0 0 1h8.525a6.454 6.454 0 0 0 1.006 3H5.5a.5.5 0 0 0 0 1h10.25c.021 0 .039-.009.06-.012a6.476 6.476 0 0 0 7.19 1.51V30.5a.5.5 0 0 1-.5.5h-21c-.28 0-.5-.22-.5-.5v-29z"/><path d="M5.5 10h6a.5.5 0 0 0 0-1h-6a.5.5 0 0 0 0 1zM5.5 26h13a.5.5 0 0 0 0-1h-13a.5.5 0 0 0 0 1z"/></g></symbol><symbol viewBox="0 0 27 32" id="shield"><path fill="#828282" d="M13.5 0C4.563 0 .292 5.047.114 5.262A.506.506 0 0 0 0 5.581v10.054c0 8.504 7.826 13.553 11.19 15.329a.501.501 0 0 0 .467-.885C7.677 27.978 1 23.308 1 15.634V5.771c.702-.755 4.632-4.597 12-4.765V31.5a.5.5 0 0 0 .875.331C15.512 31.127 27 25.816 27 15.5v-10a.5.5 0 0 0-.115-.319C26.737 5.002 23.171.806 15.744.057a.506.506 0 0 0-.548.447.5.5 0 0 0 .447.548c6.287.634 9.703 3.945 10.357 4.64V15.5c0 8.952-9.363 13.949-12 15.179V.5a.5.5 0 0 0-.5-.5z"/></symbol></svg>